# xmcd
#
# Track frame offsets:
#	150
#	25482
#	47437
#	63065
#	88380
#	106585
#	126117
#	138032
#	154092
#	165050
#
# Disc length: 2312 seconds
#
# Revision: 0
# Processed by: cddbd v1.4PL0 Copyright (c) Steve Scherf et al.
# Submitted via: audiograbber 1.81.03
#
DISCID=6d09060a
DTITLE=Raphael Rabello and Paulo Moura - Dois Irmãos
DYEAR=1991
DGENRE=Samba
TTITLE0=Ronda-Sampa
TTITLE1=Chorando Baixinho
TTITLE2=Domingo No Orfeão Portugal
TTITLE3=Violão Vadio
TTITLE4=Morena Boca De Ouro
TTITLE5=Tempos Felizes
TTITLE6=1 X 0 (Hum A Zero)
TTITLE7=Tarde De Chuva
TTITLE8=Luiza
TTITLE9=Um Chorinho Em Aldeia
EXTD=
EXTT0=
EXTT1=
EXTT2=
EXTT3=
EXTT4=
EXTT5=
EXTT6=
EXTT7=
EXTT8=
EXTT9=
PLAYORDER=
